<?xml version="1.0" encoding="UTF-8"?>
<!DOCTYPE svg PUBLIC "-//W3C//DTD SVG 1.1//EN" "http://www.w3.org/Graphics/SVG/1.1/DTD/svg11.dtd">
<svg xmlns="http://www.w3.org/2000/svg" version="1.1" width="668px" height="200px" style="shape-rendering:geometricPrecision; text-rendering:geometricPrecision; image-rendering:optimizeQuality; fill-rule:evenodd; clip-rule:evenodd" xmlns:xlink="http://www.w3.org/1999/xlink">
<g><path style="opacity:0.941" fill="#030304" d="M 37.5,37.5 C 83.1667,37.5 128.833,37.5 174.5,37.5C 174.5,48.5 174.5,59.5 174.5,70.5C 180.5,70.5 186.5,70.5 192.5,70.5C 192.5,59.5 192.5,48.5 192.5,37.5C 206.167,37.5 219.833,37.5 233.5,37.5C 232.372,62.143 232.205,86.8097 233,111.5C 241.735,87.1284 250.568,62.7951 259.5,38.5C 274.5,37.1667 289.5,37.1667 304.5,38.5C 313.432,62.7951 322.265,87.1284 331,111.5C 331.334,109.153 331.167,106.819 330.5,104.5C 343.504,104.667 356.504,104.5 369.5,104C 357.09,94.3786 344.59,84.8786 332,75.5C 331.595,62.8253 331.095,50.1586 330.5,37.5C 429.5,37.5 528.5,37.5 627.5,37.5C 627.5,60.8333 627.5,84.1667 627.5,107.5C 622.156,107.334 616.823,107.501 611.5,108C 618.5,125.667 625.5,143.333 632.5,161C 617.5,161.667 602.5,161.667 587.5,161C 578.538,140.24 569.704,119.406 561,98.5C 560.5,112.496 560.333,126.496 560.5,140.5C 472.831,140.833 385.164,140.5 297.5,139.5C 292.787,124.301 287.621,109.301 282,94.5C 277.025,109.758 271.859,124.924 266.5,140C 241.836,140.5 217.169,140.667 192.5,140.5C 192.5,129.5 192.5,118.5 192.5,107.5C 186.5,107.5 180.5,107.5 174.5,107.5C 174.5,118.5 174.5,129.5 174.5,140.5C 160.833,140.5 147.167,140.5 133.5,140.5C 133.5,130.833 133.5,121.167 133.5,111.5C 116.82,111.833 100.153,111.499 83.5,110.5C 81.7221,106.61 80.2221,102.61 79,98.5C 78.6761,112.512 78.1761,126.512 77.5,140.5C 64.1667,140.5 50.8333,140.5 37.5,140.5C 37.5,106.167 37.5,71.8333 37.5,37.5 Z M 400.5,74.5 C 410.653,73.5058 420.986,73.1724 431.5,73.5C 431.831,81.5277 431.498,89.5277 430.5,97.5C 420.481,89.8093 410.481,82.1426 400.5,74.5 Z"/></g>
<g><path style="opacity:1" fill="#859092" d="M 336.5,43.5 C 368.662,42.5018 400.996,42.1684 433.5,42.5C 433.5,51.1667 433.5,59.8333 433.5,68.5C 416.991,68.1702 400.658,68.5036 384.5,69.5C 383.957,69.44 383.624,69.1067 383.5,68.5C 399.82,67.5006 416.153,67.1672 432.5,67.5C 432.5,59.5 432.5,51.5 432.5,43.5C 400.5,43.5 368.5,43.5 336.5,43.5 Z"/></g>
<g><path style="opacity:1" fill="#50585e" d="M 139.5,43.5 C 149.319,42.506 159.319,42.1726 169.5,42.5C 169.5,53.8333 169.5,65.1667 169.5,76.5C 169.167,76.5 168.833,76.5 168.5,76.5C 168.5,65.5 168.5,54.5 168.5,43.5C 158.833,43.5 149.167,43.5 139.5,43.5 Z"/></g>
<g><path style="opacity:1" fill="#586169" d="M 227.5,43.5 C 217.833,43.5 208.167,43.5 198.5,43.5C 198.828,54.6794 198.495,65.6794 197.5,76.5C 197.5,65.1667 197.5,53.8333 197.5,42.5C 207.681,42.1726 217.681,42.506 227.5,43.5 Z"/></g>
<g><path style="opacity:1" fill="#606b75" d="M 525.5,43.5 C 557.662,42.5018 589.996,42.1684 622.5,42.5C 622.83,62.3404 622.497,82.0071 621.5,101.5C 621.5,82.1667 621.5,62.8333 621.5,43.5C 589.5,43.5 557.5,43.5 525.5,43.5 Z"/></g>
<g><path style="opacity:1" fill="#bee4f6" d="M 265.5,43.5 C 276.321,44.4946 287.321,44.8279 298.5,44.5C 298.649,45.552 298.483,46.552 298,47.5C 293.331,51.0027 289.164,55.0027 285.5,59.5C 272.496,69.8433 259.829,80.51 247.5,91.5C 252.987,75.2137 258.987,59.2137 265.5,43.5 Z"/></g>
<g><path style="opacity:1" fill="#bae4f6" d="M 525.5,43.5 C 557.5,43.5 589.5,43.5 621.5,43.5C 621.5,62.8333 621.5,82.1667 621.5,101.5C 614.833,101.5 608.167,101.5 601.5,101.5C 607.073,100.5 613.406,100.167 620.5,100.5C 620.5,81.8333 620.5,63.1667 620.5,44.5C 617.482,44.3354 614.482,44.502 611.5,45C 601.381,53.3835 591.714,62.2169 582.5,71.5C 572.985,71.1731 563.652,71.5064 554.5,72.5C 554.5,93.5 554.5,114.5 554.5,135.5C 544.833,135.5 535.167,135.5 525.5,135.5C 525.5,104.833 525.5,74.1667 525.5,43.5 Z"/></g>
<g><path style="opacity:1" fill="#95bee8" d="M 526.5,44.5 C 545.17,44.3334 563.836,44.5001 582.5,45C 563.704,60.7939 545.204,76.9606 527,93.5C 526.5,77.1701 526.333,60.8367 526.5,44.5 Z"/></g>
<g><path style="opacity:1" fill="#cdf1fc" d="M 352.5,82.5 C 347.635,80.2371 343.302,77.2371 339.5,73.5C 350.628,64.2095 361.628,54.7095 372.5,45C 392.164,44.5 411.831,44.3334 431.5,44.5C 431.5,51.8333 431.5,59.1667 431.5,66.5C 418.167,66.5 404.833,66.5 391.5,66.5C 391.361,63.4121 390.361,60.7454 388.5,58.5C 387.448,58.3505 386.448,58.5172 385.5,59C 376.688,67.2348 367.688,75.2348 358.5,83C 356.455,83.4901 354.455,83.3235 352.5,82.5 Z"/></g>
<g><path style="opacity:1" fill="#86959d" d="M 134.5,105.5 C 134.5,84.8333 134.5,64.1667 134.5,43.5C 104.167,43.5 73.8333,43.5 43.5,43.5C 43.5,73.8333 43.5,104.167 43.5,134.5C 46.5,134.5 49.5,134.5 52.5,134.5C 58.8333,134.5 65.1667,134.5 71.5,134.5C 71.5,129.167 71.5,123.833 71.5,118.5C 71.1705,102.991 71.5038,87.6576 72.5,72.5C 72.5,93.5 72.5,114.5 72.5,135.5C 62.5,135.5 52.5,135.5 42.5,135.5C 42.5,104.5 42.5,73.5 42.5,42.5C 73.5,42.5 104.5,42.5 135.5,42.5C 135.831,63.6733 135.497,84.6733 134.5,105.5 Z"/></g>
<g><path style="opacity:1" fill="#b8e5f7" d="M 134.5,105.5 C 119.152,105.833 103.819,105.499 88.5,104.5C 84.6289,95.2597 80.6289,86.093 76.5,77C 87.8284,76.5001 99.1618,76.3335 110.5,76.5C 110.5,75.1667 110.5,73.8333 110.5,72.5C 97.8333,72.5 85.1667,72.5 72.5,72.5C 71.5038,87.6576 71.1705,102.991 71.5,118.5C 64.5752,123.088 58.2418,128.422 52.5,134.5C 49.5,134.5 46.5,134.5 43.5,134.5C 43.5,104.167 43.5,73.8333 43.5,43.5C 73.8333,43.5 104.167,43.5 134.5,43.5C 134.5,64.1667 134.5,84.8333 134.5,105.5 Z"/></g>
<g><path style="opacity:1" fill="#9cc4eb" d="M 512.5,43.5 C 515.167,43.5 517.833,43.5 520.5,43.5C 520.5,52.8333 520.5,62.1667 520.5,71.5C 507.5,71.5 494.5,71.5 481.5,71.5C 491.833,62.1667 502.167,52.8333 512.5,43.5 Z"/></g>
<g><path style="opacity:1" fill="#def8fc" d="M 336.5,43.5 C 368.5,43.5 400.5,43.5 432.5,43.5C 432.5,51.5 432.5,59.5 432.5,67.5C 416.153,67.1672 399.82,67.5006 383.5,68.5C 383.624,69.1067 383.957,69.44 384.5,69.5C 392.394,75.9406 400.061,82.6072 407.5,89.5C 406.078,89.7086 404.745,90.2086 403.5,91C 398.017,95.6486 392.684,100.482 387.5,105.5C 388.77,106.288 389.77,107.288 390.5,108.5C 390.167,108.5 389.833,108.5 389.5,108.5C 376.604,100.559 364.27,91.8924 352.5,82.5C 354.455,83.3235 356.455,83.4901 358.5,83C 367.688,75.2348 376.688,67.2348 385.5,59C 386.448,58.5172 387.448,58.3505 388.5,58.5C 390.361,60.7454 391.361,63.4121 391.5,66.5C 404.833,66.5 418.167,66.5 431.5,66.5C 431.5,59.1667 431.5,51.8333 431.5,44.5C 411.831,44.3334 392.164,44.5 372.5,45C 361.628,54.7095 350.628,64.2095 339.5,73.5C 338.504,73.5858 337.671,73.2524 337,72.5C 336.5,62.8391 336.334,53.1724 336.5,43.5 Z"/></g>
<g><path style="opacity:1" fill="#92b9e5" d="M 601.5,101.5 C 601.5,101.833 601.5,102.167 601.5,102.5C 600.427,103.251 600.26,104.251 601,105.5C 607.472,121.752 613.638,138.086 619.5,154.5C 610.5,154.5 601.5,154.5 592.5,154.5C 582.736,133.557 573.736,112.224 565.5,90.5C 565.579,89.0695 565.246,87.7362 564.5,86.5C 567.686,83.4791 571.02,80.6458 574.5,78C 580.825,77.5005 587.158,77.3338 593.5,77.5C 593.5,75.5 593.5,73.5 593.5,71.5C 589.833,71.5 586.167,71.5 582.5,71.5C 591.714,62.2169 601.381,53.3835 611.5,45C 614.482,44.502 617.482,44.3354 620.5,44.5C 620.5,63.1667 620.5,81.8333 620.5,100.5C 613.406,100.167 607.073,100.5 601.5,101.5 Z"/></g>
<g><path style="opacity:1" fill="#dbf4f7" d="M 319.5,100.5 C 317.951,99.4363 316.785,97.4363 316,94.5C 309.295,100.709 302.462,106.709 295.5,112.5C 291.49,99.3029 286.99,86.3029 282,73.5C 275.234,93.3021 268.401,112.969 261.5,132.5C 267.909,110.607 274.909,88.9407 282.5,67.5C 282.291,66.914 281.957,66.414 281.5,66C 282.73,63.6608 284.063,61.4942 285.5,59.5C 289.164,55.0027 293.331,51.0027 298,47.5C 298.483,46.552 298.649,45.552 298.5,44.5C 287.321,44.8279 276.321,44.4946 265.5,43.5C 276.569,42.1708 287.735,42.1708 299,43.5C 306.14,62.4211 312.973,81.4211 319.5,100.5 Z"/></g>
<g><path style="opacity:1" fill="#95bee8" d="M 132.5,63.5 C 133.496,76.9898 133.829,90.6565 133.5,104.5C 118.833,104.5 104.167,104.5 89.5,104.5C 90.0913,101.386 91.758,98.8864 94.5,97C 107.657,86.34 120.324,75.1734 132.5,63.5 Z"/></g>
<g><path style="opacity:1" fill="#c7eefa" d="M 437.5,43.5 C 462.5,43.5 487.5,43.5 512.5,43.5C 502.167,52.8333 491.833,62.1667 481.5,71.5C 474.978,71.1765 468.645,71.5098 462.5,72.5C 462.5,73.8333 462.5,75.1667 462.5,76.5C 481.833,76.5 501.167,76.5 520.5,76.5C 505.005,77.3314 489.339,77.8314 473.5,78C 470.669,79.6657 468.336,81.8324 466.5,84.5C 456.909,91.9182 447.742,99.9182 439,108.5C 438.5,117.16 438.334,125.827 438.5,134.5C 438.167,134.5 437.833,134.5 437.5,134.5C 437.5,104.167 437.5,73.8333 437.5,43.5 Z"/></g>
<g><path style="opacity:1" fill="#a7d0f0" d="M 456.5,44.5 C 464.84,44.3336 473.173,44.5003 481.5,45C 467.239,57.3824 453.073,69.8824 439,82.5C 438.333,75.1667 438.333,67.8333 439,60.5C 445.029,55.3008 450.862,49.9674 456.5,44.5 Z"/></g>
<g><path style="opacity:1" fill="#8f9da8" d="M 437.5,43.5 C 465.328,42.502 493.328,42.1687 521.5,42.5C 521.5,52.5 521.5,62.5 521.5,72.5C 501.833,72.5 482.167,72.5 462.5,72.5C 468.645,71.5098 474.978,71.1765 481.5,71.5C 494.5,71.5 507.5,71.5 520.5,71.5C 520.5,62.1667 520.5,52.8333 520.5,43.5C 517.833,43.5 515.167,43.5 512.5,43.5C 487.5,43.5 462.5,43.5 437.5,43.5 Z"/></g>
<g><path style="opacity:1" fill="#c2eaf8" d="M 139.5,43.5 C 149.167,43.5 158.833,43.5 168.5,43.5C 168.5,54.5 168.5,65.5 168.5,76.5C 168.833,76.5 169.167,76.5 169.5,76.5C 178.833,76.5 188.167,76.5 197.5,76.5C 198.495,65.6794 198.828,54.6794 198.5,43.5C 208.167,43.5 217.833,43.5 227.5,43.5C 227.5,73.8333 227.5,104.167 227.5,134.5C 217.833,134.5 208.167,134.5 198.5,134.5C 198.5,123.5 198.5,112.5 198.5,101.5C 198.167,101.5 197.833,101.5 197.5,101.5C 187.833,101.5 178.167,101.5 168.5,101.5C 168.5,112.833 168.5,124.167 168.5,135.5C 158.833,135.5 149.167,135.5 139.5,135.5C 139.5,104.833 139.5,74.1667 139.5,43.5 Z"/></g>
<g><path style="opacity:1" fill="#a1caee" d="M 199.5,44.5 C 208.173,44.3336 216.84,44.5002 225.5,45C 217.094,52.6176 208.594,60.1176 200,67.5C 199.5,59.8406 199.334,52.1739 199.5,44.5 Z"/></g>
<g><path style="opacity:1" fill="#9ac3ea" d="M 168.5,76.5 C 174.653,77.3279 180.987,77.8279 187.5,78C 172.354,91.7353 157.021,105.235 141.5,118.5C 140.334,97.8414 140.167,77.1747 141,56.5C 145.5,52.6667 150,48.8333 154.5,45C 158.821,44.501 163.154,44.3343 167.5,44.5C 167.172,55.3464 167.506,66.0131 168.5,76.5 Z"/></g>
<g><path style="opacity:1" fill="#a7d1f1" d="M 198.5,101.5 C 196.708,100.691 194.708,100.191 192.5,100C 203.667,90.1667 214.833,80.3333 226,70.5C 226.667,83.8333 226.667,97.1667 226,110.5C 217.521,118.402 208.855,126.068 200,133.5C 199.83,122.659 199.33,111.992 198.5,101.5 Z"/></g>
<g><path style="opacity:1" fill="#9fc9ed" d="M 520.5,76.5 C 521.833,86.1667 521.833,95.8333 520.5,105.5C 520.662,103.473 520.495,101.473 520,99.5C 518.442,101.359 516.609,102.859 514.5,104C 500.837,104.5 487.171,104.667 473.5,104.5C 471.264,100.078 468.764,95.7442 466,91.5C 465.444,89.1152 465.61,86.7819 466.5,84.5C 468.336,81.8324 470.669,79.6657 473.5,78C 489.339,77.8314 505.005,77.3314 520.5,76.5 Z"/></g>
<g><path style="opacity:1" fill="#b9d9e8" d="M 554.5,72.5 C 563.652,71.5064 572.985,71.1731 582.5,71.5C 586.167,71.5 589.833,71.5 593.5,71.5C 593.5,73.5 593.5,75.5 593.5,77.5C 587.158,77.3338 580.825,77.5005 574.5,78C 571.02,80.6458 567.686,83.4791 564.5,86.5C 565.246,87.7362 565.579,89.0695 565.5,90.5C 563.135,86.4385 561.135,82.1051 559.5,77.5C 570.48,76.5012 581.48,76.1679 592.5,76.5C 592.5,75.1667 592.5,73.8333 592.5,72.5C 579.833,72.5 567.167,72.5 554.5,72.5 Z"/></g>
<g><path style="opacity:1" fill="#d3f4fb" d="M 285.5,59.5 C 284.063,61.4942 282.73,63.6608 281.5,66C 281.957,66.414 282.291,66.914 282.5,67.5C 274.909,88.9407 267.909,110.607 261.5,132.5C 261.5,133.167 261.5,133.833 261.5,134.5C 251.652,134.827 241.986,134.494 232.5,133.5C 237.107,119.343 242.107,105.343 247.5,91.5C 259.829,80.51 272.496,69.8433 285.5,59.5 Z"/></g>
<g><path style="opacity:1" fill="#c5eafa" d="M 407.5,89.5 C 411.127,91.7935 414.461,94.4602 417.5,97.5C 416.668,98.3285 417.001,99.1618 418.5,100C 406.129,111.373 393.462,122.373 380.5,133C 372.5,133.667 364.5,133.667 356.5,133C 364.167,126 371.833,119 379.5,112C 383.356,111.823 387.023,111.323 390.5,110.5C 390.5,109.833 390.5,109.167 390.5,108.5C 389.77,107.288 388.77,106.288 387.5,105.5C 392.684,100.482 398.017,95.6486 403.5,91C 404.745,90.2086 406.078,89.7086 407.5,89.5 Z"/></g>
<g><path style="opacity:1" fill="#cdf0fc" d="M 319.5,100.5 C 321.402,104.655 323.069,108.989 324.5,113.5C 317.229,118.764 310.229,124.431 303.5,130.5C 301.339,124.662 299.005,118.996 296.5,113.5C 295.833,113.5 295.5,113.167 295.5,112.5C 302.462,106.709 309.295,100.709 316,94.5C 316.785,97.4363 317.951,99.4363 319.5,100.5 Z"/></g>
<g><path style="opacity:1" fill="#cfe7f7" d="M 520.5,105.5 C 501.167,105.5 481.833,105.5 462.5,105.5C 462.5,106.833 462.5,108.167 462.5,109.5C 462.5,109.833 462.5,110.167 462.5,110.5C 461.539,108.735 461.205,106.735 461.5,104.5C 465.5,104.5 469.5,104.5 473.5,104.5C 487.171,104.667 500.837,104.5 514.5,104C 516.609,102.859 518.442,101.359 520,99.5C 520.495,101.473 520.662,103.473 520.5,105.5 Z"/></g>
<g><path style="opacity:1" fill="#99c2ea" d="M 552.5,96.5 C 553.495,108.655 553.829,120.989 553.5,133.5C 544.5,133.5 535.5,133.5 526.5,133.5C 526.334,128.821 526.501,124.155 527,119.5C 535.396,111.598 543.896,103.931 552.5,96.5 Z"/></g>
<g><path style="opacity:1" fill="#7e8688" d="M 389.5,108.5 C 389.833,108.5 390.167,108.5 390.5,108.5C 390.5,109.167 390.5,109.833 390.5,110.5C 372.5,110.5 354.5,110.5 336.5,110.5C 354.167,109.833 371.833,109.167 389.5,108.5 Z"/></g>
<g><path style="opacity:1" fill="#a3b6cc" d="M 601.5,102.5 C 608.367,120.435 615.033,138.435 621.5,156.5C 611.442,157.14 601.775,156.473 592.5,154.5C 601.5,154.5 610.5,154.5 619.5,154.5C 613.638,138.086 607.472,121.752 601,105.5C 600.26,104.251 600.427,103.251 601.5,102.5 Z"/></g>
<g><path style="opacity:1" fill="#dcf8fd" d="M 417.5,97.5 C 422.5,101.5 427.5,105.5 432.5,109.5C 432.5,117.833 432.5,126.167 432.5,134.5C 400.5,134.5 368.5,134.5 336.5,134.5C 336.5,126.5 336.5,118.5 336.5,110.5C 354.5,110.5 372.5,110.5 390.5,110.5C 387.023,111.323 383.356,111.823 379.5,112C 371.833,119 364.167,126 356.5,133C 364.5,133.667 372.5,133.667 380.5,133C 393.462,122.373 406.129,111.373 418.5,100C 417.001,99.1618 416.668,98.3285 417.5,97.5 Z"/></g>
<g><path style="opacity:1" fill="#a8d2f1" d="M 466.5,84.5 C 465.61,86.7819 465.444,89.1152 466,91.5C 468.764,95.7442 471.264,100.078 473.5,104.5C 469.5,104.5 465.5,104.5 461.5,104.5C 461.205,106.735 461.539,108.735 462.5,110.5C 476.661,111.331 490.994,111.831 505.5,112C 497.27,119.736 488.937,127.236 480.5,134.5C 466.5,134.5 452.5,134.5 438.5,134.5C 438.334,125.827 438.5,117.16 439,108.5C 447.742,99.9182 456.909,91.9182 466.5,84.5 Z"/></g>
<g><path style="opacity:1" fill="#def7fb" d="M 296.5,113.5 C 299.005,118.996 301.339,124.662 303.5,130.5C 310.229,124.431 317.229,118.764 324.5,113.5C 327.23,120.023 329.563,126.69 331.5,133.5C 322.014,134.494 312.348,134.827 302.5,134.5C 300.5,127.5 298.5,120.5 296.5,113.5 Z"/></g>
<g><path style="opacity:1" fill="#c3ecfa" d="M 462.5,110.5 C 481.833,110.5 501.167,110.5 520.5,110.5C 520.5,118.5 520.5,126.5 520.5,134.5C 507.167,134.5 493.833,134.5 480.5,134.5C 488.937,127.236 497.27,119.736 505.5,112C 490.994,111.831 476.661,111.331 462.5,110.5 Z"/></g>
<g><path style="opacity:1" fill="#96bce7" d="M 71.5,118.5 C 71.5,123.833 71.5,129.167 71.5,134.5C 65.1667,134.5 58.8333,134.5 52.5,134.5C 58.2418,128.422 64.5752,123.088 71.5,118.5 Z"/></g>
<g><path style="opacity:1" fill="#b6e0f7" d="M 429.5,115.5 C 431.453,121.074 432.12,127.074 431.5,133.5C 424.492,133.666 417.492,133.5 410.5,133C 417.03,127.301 423.363,121.467 429.5,115.5 Z"/></g>
<g><path style="opacity:1" fill="#a0caed" d="M 165.5,122.5 C 167.414,125.684 168.08,129.351 167.5,133.5C 163.154,133.666 158.821,133.499 154.5,133C 158.668,129.998 162.335,126.498 165.5,122.5 Z"/></g>
<g><path style="opacity:1" fill="#88969f" d="M 462.5,110.5 C 462.5,110.167 462.5,109.833 462.5,109.5C 482.167,109.5 501.833,109.5 521.5,109.5C 521.5,118.167 521.5,126.833 521.5,135.5C 493.328,135.831 465.328,135.498 437.5,134.5C 437.833,134.5 438.167,134.5 438.5,134.5C 452.5,134.5 466.5,134.5 480.5,134.5C 493.833,134.5 507.167,134.5 520.5,134.5C 520.5,126.5 520.5,118.5 520.5,110.5C 501.167,110.5 481.833,110.5 462.5,110.5 Z"/></g>
<g><path style="opacity:1" fill="#9fc9ed" d="M 518.5,126.5 C 519.468,128.607 519.802,130.941 519.5,133.5C 516.813,133.664 514.146,133.497 511.5,133C 513.729,130.6 516.063,128.433 518.5,126.5 Z"/></g>
<g><path style="opacity:1" fill="#7a868b" d="M 197.5,101.5 C 197.833,101.5 198.167,101.5 198.5,101.5C 198.5,112.5 198.5,123.5 198.5,134.5C 208.167,134.5 217.833,134.5 227.5,134.5C 217.681,135.494 207.681,135.827 197.5,135.5C 197.5,124.167 197.5,112.833 197.5,101.5 Z"/></g>
<g><path style="opacity:1" fill="#94a1a3" d="M 232.5,133.5 C 241.986,134.494 251.652,134.827 261.5,134.5C 251.659,135.823 241.659,135.823 231.5,134.5C 231.624,133.893 231.957,133.56 232.5,133.5 Z"/></g>
<g><path style="opacity:1" fill="#9ba4a5" d="M 331.5,133.5 C 332.043,133.56 332.376,133.893 332.5,134.5C 322.341,135.823 312.341,135.823 302.5,134.5C 312.348,134.827 322.014,134.494 331.5,133.5 Z"/></g>
<g><path style="opacity:1" fill="#95a2a6" d="M 432.5,109.5 C 433.493,117.984 433.826,126.651 433.5,135.5C 400.996,135.832 368.662,135.498 336.5,134.5C 368.5,134.5 400.5,134.5 432.5,134.5C 432.5,126.167 432.5,117.833 432.5,109.5 Z"/></g>
</svg>
